<?xml version="1.0" standalone="no"?><!DOCTYPE svg PUBLIC "-//W3C//DTD SVG 1.1//EN" "http://www.w3.org/Graphics/SVG/1.1/DTD/svg11.dtd"><svg t="1742572731860" class="icon" viewBox="0 0 1024 1024" version="1.1" xmlns="http://www.w3.org/2000/svg" p-id="11893" xmlns:xlink="http://www.w3.org/1999/xlink" width="200" height="200"><path d="M106.33951573 394.33676914l0.1279818-115.37572409L510.62234681 47.08717454l408.28707271 235.04696093-2.11539285 137.59323591s-24.58740053 11.12420238-24.71685462 32.7944795 9.52074013 37.66665102 36.06612992 37.73137693c26.54391865 0.06472704 35.13494528-18.97822549 35.13494642-37.44304811 0-18.46629376-19.49015609-32.31491186-19.49015609-32.31491186l0.9606053-159.00607602L511.13427741 12.20672398 74.63509675 259.43705373l0.1441644 134.90265656 31.56025458-0.00294115zM917.65901312 592.07160491l-0.12945294 115.37572408-404.15190699 231.87239936L105.08910933 704.27276743l2.11539286-137.58882247s24.58740053-11.12420238 24.71685461-32.79595065c0.12945408-21.67321827-9.52074013-37.66812103-36.06612992-37.73284807C69.31277824 496.0904192 60.72175161 515.13189945 60.72175161 533.59819435s20.90090837 31.92949191 20.90090951 31.92949191L79.24983125 724.92212451l433.6144202 249.28246784L949.36343325 726.96984803l-0.14416555-134.90118542-31.56025458 0.0029423z" p-id="11894"></path><path d="M520.42994461 233.43890091l228.09617294 150.99465045c19.48721379 11.25071417 0.47368306 22.40580949 0.47368306 22.40580949L522.05547293 555.41116359s-12.94244067 8.28798749-27.00289138-1.28865394c-4.16017522-2.72147229-228.40950898-149.53093917-228.40950898-149.53093802s-13.70298141-7.62453675 0.5354678-17.64691058c4.01748195-2.59201821 196.01810205-126.42490141 238.1067776-153.57342948 7.83489821-5.79894272 15.14462663 0.06766933 15.14462664 0.06766934zM299.44784896 395.87550435s186.19726393 123.28711737 198.17174357 129.73627165c12.8394661 7.88785721 24.31083975-0.31480832 24.31083976-0.31480832l197.69511822-129.42146333-197.69806052-131.39710634s-8.58219975-7.86137771-19.02824106 0.17799964l-203.45139997 131.2191067z" p-id="11895"></path><path d="M377.78212523 547.28793657l-75.72901774 50.5502481s189.93965739 121.01284864 199.12499427 126.86769266 17.31444963 0.80173056 17.3144485 0.8017317l193.25985337-120.07136711s19.39600839-8.72048071 1.82559402-18.27358493c-5.48119325-3.55703808-45.60893725-31.72060046-45.60893724-31.72060046l16.27587698-24.1549073 68.41193358 49.43370922c25.93489693 17.79254613-1.98740992 33.46675598-1.98740992 33.46675598l-229.08472889 141.7416431s-12.76149987 9.25447737-24.4255835-1.58433735c-7.44065251-4.80891563-218.63868757-141.24589397-218.63868757-141.24589397s-28.85349262-15.13138745-0.64285583-37.56956104c11.90975261-8.69400121 79.37579122-56.55219883 79.37579008-56.55219768l20.52872989 28.31066908z" p-id="11896"></path></svg>